<?xml version="1.0" encoding="UTF-8" standalone="no"?><!DOCTYPE svg PUBLIC "-//W3C//DTD SVG 1.1//EN" "http://www.w3.org/Graphics/SVG/1.1/DTD/svg11.dtd"><svg width="100%" height="100%" viewBox="0 0 260 52" version="1.1" xmlns="http://www.w3.org/2000/svg" xmlns:xlink="http://www.w3.org/1999/xlink" xml:space="preserve" xmlns:serif="http://www.serif.com/" style="fill-rule:evenodd;clip-rule:evenodd;stroke-linejoin:round;stroke-miterlimit:2;"><rect x="130" y="12.75" width="6.71" height="25.51" style="fill:#fff;"/><path d="M95.11,12.75l-8.28,0l-8.08,25.49l6.66,0l1.49,-5.53l7.61,0l1.48,5.53l7.14,0l-8.02,-25.49Zm-7,15.18l2.48,-9.35l0.32,0l2.45,9.35l-5.25,0Z" style="fill:#fff;fill-rule:nonzero;"/><path d="M121.8,28.45c2.8,-1.293 4.584,-4.127 4.54,-7.21c-0,-5 -3.2,-8.49 -9.63,-8.49l-11.08,0l-0,25.49l6.61,0l-0,-8.89l3,0l4.24,8.89l7.38,0l-5.06,-9.79Zm-6.13,-3.74l-3.43,0l0,-7l3.5,0c0.09,-0.007 0.181,-0.011 0.272,-0.011c1.881,0 3.43,1.549 3.43,3.43c-0,0.037 -0.001,0.074 -0.002,0.111c-0,2.33 -1.59,3.47 -3.77,3.47Z" style="fill:#fff;fill-rule:nonzero;"/><path d="M152.04,12.3c-7.4,-0 -11.61,4.62 -11.61,11.87l0,2.8c0,7.18 4.19,11.74 11.59,11.74c7.4,0 11.59,-4.56 11.59,-11.74l0,-2.8c0,-7.21 -4.17,-11.87 -11.57,-11.87Zm4.73,14.71c0,4.19 -1.89,6.32 -4.75,6.32c-2.86,0 -4.78,-2.09 -4.78,-6.32l0,-2.93c0,-4.19 1.89,-6.38 4.75,-6.38c2.86,0 4.75,2.19 4.75,6.38l0.03,2.93Z" style="fill:#fff;fill-rule:nonzero;"/><path d="M173.14,26.84c0,4.27 1.7,6.38 4.51,6.38c2.81,0 4.15,-2 4.15,-4.54l6.37,0l0,0.87c0,5.24 -4.17,9.16 -10.62,9.16c-7.19,0 -11.25,-4.54 -11.25,-11.9l0,-2.57c0,-7.39 4.08,-11.95 11.25,-11.95c6.4,0 10.62,3.91 10.62,9.31l0,0.84l-6.37,0c0,-2.52 -1.44,-4.65 -4.19,-4.65c-2.75,0 -4.47,2.19 -4.47,6.45l0,2.6Z" style="fill:#fff;fill-rule:nonzero;"/><path d="M198.24,28.58c0,3.12 1.72,4.58 4.19,4.58c2.47,0 4.2,-1.49 4.2,-4.58l0,-15.83l6.61,-0l0,16.77c0,5.55 -4.13,9.19 -10.89,9.19c-6.76,0 -10.88,-3.64 -10.88,-9.19l0,-16.77l6.77,-0l-0,15.83Z" style="fill:#fff;fill-rule:nonzero;"/><path d="M232.71,24.86l0,-0.3c2.738,-0.364 4.767,-2.791 4.64,-5.55c0,-4 -3.25,-6.26 -8,-6.26l-11.61,0l0,25.49l11.93,0c4.8,0 8.86,-2.54 8.86,-7.25c0.072,-3.273 -2.547,-6.033 -5.82,-6.13Zm-8.33,-7.47l3.23,-0c2,-0 3.21,1 3.21,2.78c-0,1.78 -1.14,2.84 -3.64,2.84l-2.8,-0l-0,-5.62Zm3.1,16.24l-3.1,-0l-0,-6.45l3.51,-0c2.5,-0 3.83,1.25 3.83,3.23c-0,1.98 -1.48,3.22 -4.24,3.22Z" style="fill:#fff;fill-rule:nonzero;"/><path d="M259.37,38.26l-17.48,0l0,-25.51l17.48,0l0,5.25l-10.84,0l0,5.05l10.15,0l0,4.82l-10.15,0l0,5.14l10.84,0l0,5.25Z" style="fill:#fff;fill-rule:nonzero;"/><path d="M69.13,25.9l3.38,12.41l-6.86,-0l-8.71,-25.61l8.59,-0l3.6,13.2Zm5.87,5.34l6.31,-18.54l-8.59,-0l-1.38,5.09l3.66,13.45Z" style="fill:#fff;fill-rule:nonzero;"/><path d="M14.24,46.48l29.94,-17.24l0,9l-22.09,12.78l-7.85,-4.54Zm-4.25,-2.45l34.19,-19.79l0,-9l-42.06,24.25l7.87,4.54Z" style="fill:#fff;fill-rule:nonzero;"/><path d="M0,35.81l0,-20.57l17.84,10.27l-17.84,10.3Zm34.24,-19.75l7.86,-4.53l-20,-11.53l-7.86,4.53l20,11.53Zm-24.26,-9.07l-7.86,4.53l20,11.53l7.86,-4.53l-20,-11.53Z" style="fill:#fff;fill-rule:nonzero;"/></svg>