<svg id="Layer_1" data-name="Layer 1" xmlns="http://www.w3.org/2000/svg" viewBox="0 0 284.88 76.54"><defs><style>.cls-1{fill:none;}.cls-2{fill:#ffffff;}.cls-3{fill:#ffffff;}</style></defs><title>VC_LOGO_RGB_Main</title><metadata><?xpacket begin="﻿" id="W5M0MpCehiHzreSzNTczkc9d"?>
<x:xmpmeta xmlns:x="adobe:ns:meta/" x:xmptk="Adobe XMP Core 5.6-c148 79.163858, 2019/03/06-03:18:36        ">
   <rdf:RDF xmlns:rdf="http://www.w3.org/1999/02/22-rdf-syntax-ns#">
      <rdf:Description rdf:about=""
            xmlns:dc="http://purl.org/dc/elements/1.1/"
            xmlns:xmpRights="http://ns.adobe.com/xap/1.0/rights/"
            xmlns:Iptc4xmpCore="http://iptc.org/std/Iptc4xmpCore/1.0/xmlns/"
            xmlns:xmp="http://ns.adobe.com/xap/1.0/"
            xmlns:xmpMM="http://ns.adobe.com/xap/1.0/mm/"
            xmlns:stEvt="http://ns.adobe.com/xap/1.0/sType/ResourceEvent#">
         <dc:title>
            <rdf:Alt>
               <rdf:li xml:lang="x-default">VC_LOGO_RGB_Main</rdf:li>
            </rdf:Alt>
         </dc:title>
         <dc:creator>
            <rdf:Seq>
               <rdf:li>VARIOCUBE GmbH</rdf:li>
               <rdf:li>(Scott Greenhorn)</rdf:li>
            </rdf:Seq>
         </dc:creator>
         <dc:rights>
            <rdf:Alt>
               <rdf:li xml:lang="x-default">© VARIOCUBE GmbH</rdf:li>
            </rdf:Alt>
         </dc:rights>
         <xmpRights:Marked>True</xmpRights:Marked>
         <Iptc4xmpCore:CreatorContactInfo>
            <rdf:Description>
               <Iptc4xmpCore:CiAdrExtadr>Franckstrasse 45</Iptc4xmpCore:CiAdrExtadr>
               <Iptc4xmpCore:CiAdrCity>Linz</Iptc4xmpCore:CiAdrCity>
               <Iptc4xmpCore:CiAdrRegion>Upper Austria</Iptc4xmpCore:CiAdrRegion>
               <Iptc4xmpCore:CiAdrPcode>4020</Iptc4xmpCore:CiAdrPcode>
               <Iptc4xmpCore:CiAdrCtry>Austria</Iptc4xmpCore:CiAdrCtry>
               <Iptc4xmpCore:CiEmailWork>office@variocube.com</Iptc4xmpCore:CiEmailWork>
               <Iptc4xmpCore:CiUrlWork>www.variocube.com</Iptc4xmpCore:CiUrlWork>
            </rdf:Description>
         </Iptc4xmpCore:CreatorContactInfo>
         <xmp:MetadataDate>2019-10-31T18:45:11+01:00</xmp:MetadataDate>
         <xmpMM:InstanceID>xmp.iid:9c52f9b3-b2bb-4be5-9c5d-2b468f450fe9</xmpMM:InstanceID>
         <xmpMM:DocumentID>xmp.did:9c52f9b3-b2bb-4be5-9c5d-2b468f450fe9</xmpMM:DocumentID>
         <xmpMM:OriginalDocumentID>xmp.did:9c52f9b3-b2bb-4be5-9c5d-2b468f450fe9</xmpMM:OriginalDocumentID>
         <xmpMM:History>
            <rdf:Seq>
               <rdf:li>
                  <rdf:Description>
                     <stEvt:action>saved</stEvt:action>
                     <stEvt:instanceID>xmp.iid:9c52f9b3-b2bb-4be5-9c5d-2b468f450fe9</stEvt:instanceID>
                     <stEvt:when>2019-10-31T18:45:11+01:00</stEvt:when>
                     <stEvt:softwareAgent>Adobe Bridge 2019 (Macintosh)</stEvt:softwareAgent>
                     <stEvt:changed>/metadata</stEvt:changed>
                  </rdf:Description>
               </rdf:li>
            </rdf:Seq>
         </xmpMM:History>
      </rdf:Description>
   </rdf:RDF>
</x:xmpmeta>
                                                                                                    
                                                                                                    
                                                                                                    
                                                                                                    
                                                                                                    
                                                                                                    
                                                                                                    
                                                                                                    
                                                                                                    
                                                                                                    
                                                                                                    
                                                                                                    
                                                                                                    
                                                                                                    
                                                                                                    
                                                                                                    
                                                                                                    
                                                                                                    
                                                                                                    
                                                                                                    
                           
<?xpacket end="w"?></metadata>
<rect class="cls-1" width="284.88" height="76.54"/><rect class="cls-2" x="142.76" y="25.51" width="6.71" height="25.51"/><path class="cls-2" d="M107.87,25.51H99.59L91.51,51h6.66l1.49-5.53h7.61L108.75,51h7.14Zm-7,15.18,2.48-9.35h.32l2.45,9.35Z"/><path class="cls-2" d="M134.56,41.21A7.82,7.82,0,0,0,139.1,34c0-5-3.2-8.49-9.63-8.49H118.39V51H125V42.11h3L132.24,51h7.38Zm-6.13-3.74H125v-7h3.5A3.43,3.43,0,0,1,132.2,34C132.2,36.33,130.61,37.47,128.43,37.47Z"/><path class="cls-2" d="M164.8,25.06c-7.4,0-11.61,4.62-11.61,11.87v2.8c0,7.18,4.19,11.74,11.59,11.74s11.59-4.56,11.59-11.74v-2.8C176.37,29.72,172.2,25.06,164.8,25.06Zm4.73,14.71c0,4.19-1.89,6.32-4.75,6.32S160,44,160,39.77V36.84c0-4.19,1.89-6.38,4.75-6.38s4.75,2.19,4.75,6.38Z"/><path class="cls-2" d="M185.9,39.6c0,4.27,1.7,6.38,4.51,6.38s4.15-2,4.15-4.54h6.37v.87c0,5.24-4.17,9.16-10.62,9.16-7.19,0-11.25-4.54-11.25-11.9V37c0-7.39,4.08-11.95,11.25-11.95,6.4,0,10.62,3.91,10.62,9.31v.84h-6.37c0-2.52-1.44-4.65-4.19-4.65S185.9,32.74,185.9,37Z"/><path class="cls-2" d="M211,41.34c0,3.12,1.72,4.58,4.19,4.58s4.2-1.49,4.2-4.58V25.51H226V42.28c0,5.55-4.13,9.19-10.89,9.19s-10.88-3.64-10.88-9.19V25.51H211Z"/><path class="cls-2" d="M245.47,37.62v-.3a5.35,5.35,0,0,0,4.64-5.55c0-4-3.25-6.26-8-6.26H230.5V51h11.93c4.8,0,8.86-2.54,8.86-7.25A6,6,0,0,0,245.47,37.62Zm-8.33-7.47h3.23c2,0,3.21,1,3.21,2.78s-1.14,2.84-3.64,2.84h-2.8Zm3.1,16.24h-3.1V39.94h3.51c2.5,0,3.83,1.25,3.83,3.23S243,46.39,240.24,46.39Z"/><polygon class="cls-2" points="272.13 51.02 254.65 51.02 254.65 25.51 272.13 25.51 272.13 30.76 261.29 30.76 261.29 35.81 271.44 35.81 271.44 40.63 261.29 40.63 261.29 45.77 272.13 45.77 272.13 51.02"/><path class="cls-2" d="M81.89,38.66l3.38,12.41H78.41L69.7,25.46h8.59l3.6,13.2ZM87.76,44l6.31-18.54H85.48L84.1,30.55Z"/><path class="cls-2" d="M27,59.24,56.94,42V51L34.85,63.78Zm-4.25-2.45L56.94,37V28L14.88,52.25Z"/><path class="cls-3" d="M12.76,48.57V28L30.6,38.27ZM47,28.82l7.86-4.53-20-11.53L27,17.29ZM22.74,19.75l-7.86,4.53,20,11.53,7.86-4.53Z"/></svg>